<svg width="24" height="24" viewBox="0 0 24 24" fill="none" xmlns="http://www.w3.org/2000/svg">
<path d="M11.1168 3.66277C11.4928 2.95486 12.5072 2.95486 12.8832 3.66277L14.8392 7.34562C14.9837 7.61777 15.2457 7.80807 15.5492 7.86144L19.6562 8.58368C20.4457 8.7225 20.7591 9.68721 20.202 10.2635L17.3039 13.2619C17.0897 13.4834 16.9897 13.7914 17.0327 14.0965L17.615 18.2257C17.7269 19.0194 16.9062 19.6156 16.186 19.2639L12.4388 17.4342C12.1619 17.2989 11.8381 17.2989 11.5612 17.4342L7.81402 19.2639C7.09374 19.6156 6.27311 19.0194 6.38503 18.2257L6.96729 14.0965C7.01032 13.7914 6.91027 13.4834 6.69611 13.2619L3.79796 10.2635C3.24088 9.68721 3.55434 8.7225 4.34379 8.58368L8.45083 7.86144C8.75432 7.80807 9.01627 7.61776 9.16081 7.34562L11.1168 3.66277Z" stroke="#2B62DF" stroke-width="1.5"/>
</svg>
