<svg width="25" height="24" viewBox="0 0 25 24" fill="none" xmlns="http://www.w3.org/2000/svg">
<path d="M19.5538 5.42141L14.2163 2.43141C13.1942 1.86141 11.594 1.86141 10.5719 2.43141L5.18274 5.44141C3.04567 6.84141 2.92178 7.05141 2.92178 9.28141V14.7114C2.92178 16.9414 3.04567 17.1614 5.22404 18.5814L10.5616 21.5714C11.0778 21.8614 11.7385 22.0014 12.3889 22.0014C13.0393 22.0014 13.7001 21.8614 14.2059 21.5714L19.5951 18.5614C21.7321 17.1614 21.856 16.9514 21.856 14.7214V9.28141C21.856 7.05141 21.7321 6.84141 19.5538 5.42141ZM12.3889 15.2514C10.5409 15.2514 9.0336 13.7914 9.0336 12.0014C9.0336 10.2114 10.5409 8.75141 12.3889 8.75141C14.2369 8.75141 15.7442 10.2114 15.7442 12.0014C15.7442 13.7914 14.2369 15.2514 12.3889 15.2514Z" fill="white"/>
</svg>
